<svg id="Layer_1" data-name="Layer 1" xmlns="http://www.w3.org/2000/svg" viewBox="0 0 966.83 837.52"><defs><style>.cls-1{fill:#fff;}</style></defs><circle cx="457" cy="405" r="132"/><path class="cls-1" d="M404.09,411.87l-2-5.32L430,396l2,5.32L409.12,410Zm37.85,42.87,1.94-2.68A11.75,11.75,0,0,0,445.36,441l-2.45-6.44,13.29-5-18.58-49L391,398.26a7.76,7.76,0,0,0-4.5,10l.38,1-6.54,2.49a6.68,6.68,0,0,0-3.87,8.62l8,21.19a6.74,6.74,0,0,0,6.24,4.32,7,7,0,0,0,2.37-.44l6.55-2.49a7.77,7.77,0,0,0,7.17,4.77,7.65,7.65,0,0,0,2.75-.52l1.74-.66L429,481.37a3.84,3.84,0,0,0,3.42,2.11,3.9,3.9,0,0,0,1.37-.25l15.2-5.76a4,4,0,0,0,2.23-2.24,3.81,3.81,0,0,0-.19-3.15Z"/><path class="cls-1" d="M527.59,438.51a4.63,4.63,0,0,1-3.57,1.65,6.47,6.47,0,0,1-.95-.09L463,427.75l-19.17-50.51,36.82-49.1a4.68,4.68,0,0,1,8.12,1.16l39.66,104.53a4.61,4.61,0,0,1-.79,4.68Z"/><polygon class="cls-1" points="543.77 372.28 526.92 378.65 525.58 375.1 524.23 371.56 541.09 365.18 542.43 368.73 543.77 372.28"/><polygon class="cls-1" points="524.95 340.13 512.48 353.13 509.73 350.51 507 347.89 519.47 334.87 522.2 337.51 524.95 340.13"/><polygon class="cls-1" points="548.31 401.72 547.71 409.26 529.73 407.82 530.36 400.25 548.31 401.72"/><path class="cls-1" d="M395.63,342.41h15.66V326.66h8.62v15.75h15.84V351H419.91V367h-8.62V351H395.63Z"/></svg>